<svg width="28" height="25" viewBox="0 0 28 25" fill="none" xmlns="http://www.w3.org/2000/svg">
<path d="M28.0016 11.375C28.0016 17.6586 21.7344 22.75 14.0016 22.75C11.9727 22.75 10.0477 22.4 8.30865 21.7711C7.65787 22.2469 6.59693 22.8977 5.33912 23.4445C4.02662 24.0133 2.44615 24.5 0.876622 24.5C0.521153 24.5 0.203966 24.2867 0.0672468 23.9586C-0.069472 23.6305 0.0070905 23.2586 0.253184 23.007L0.26959 22.9906C0.285997 22.9742 0.307872 22.9523 0.340684 22.9141C0.40084 22.8484 0.493809 22.7445 0.608653 22.6023C0.832872 22.3289 1.13365 21.9242 1.4399 21.4211C1.98678 20.5133 2.50631 19.3211 2.61022 17.9812C0.969591 16.1219 0.00162176 13.8414 0.00162176 11.375C0.00162176 5.09141 6.26881 0 14.0016 0C21.7344 0 28.0016 5.09141 28.0016 11.375Z" fill="#1E293B"/>
</svg>
