<svg width="23" height="25" viewBox="0 0 23 25" fill="none" xmlns="http://www.w3.org/2000/svg">
<path d="M1.24912 14.9766H6.24912V23.7266C6.24912 24.0581 6.38082 24.376 6.61524 24.6104C6.84966 24.8449 7.1676 24.9766 7.49912 24.9766H14.9991C15.3306 24.9766 15.6486 24.8449 15.883 24.6104C16.1174 24.376 16.2491 24.0581 16.2491 23.7266V14.9766H21.2491C21.4845 14.9762 21.7149 14.9094 21.914 14.784C22.1131 14.6585 22.2728 14.4794 22.3748 14.2673C22.4767 14.0552 22.5168 13.8187 22.4903 13.5848C22.4639 13.351 22.3721 13.1293 22.2254 12.9453L12.2254 0.445312C11.7491 -0.148438 10.7491 -0.148438 10.2729 0.445312L0.272873 12.9453C0.126171 13.1293 0.0343362 13.351 0.00791289 13.5848C-0.0185105 13.8187 0.0215489 14.0552 0.123491 14.2673C0.225433 14.4794 0.385125 14.6585 0.584233 14.784C0.78334 14.9094 1.01379 14.9762 1.24912 14.9766Z" fill="#DC2626"/>
</svg>
