<svg width="36" height="22" viewBox="0 0 36 22" fill="none" xmlns="http://www.w3.org/2000/svg">
<path fill-rule="evenodd" clip-rule="evenodd" d="M17.9921 0C6.1037 0 0 10.9971 0 10.9971C0 10.9971 4.60586 21.9943 17.9921 21.9943C30.1141 21.9943 35.9826 11.0397 35.9826 11.0397C35.9826 11.0397 30.0676 0 17.9921 0ZM18.019 17.8703C13.6723 17.8703 10.5298 14.8626 10.5298 10.9971C10.5298 7.13026 13.6723 4.12392 18.019 4.12392C22.3657 4.12392 25.5082 7.13026 25.5082 10.9971C25.5082 14.8626 22.3657 17.8703 18.019 17.8703ZM18.019 6.8732C15.5356 6.87733 13.5255 8.78808 13.5255 10.9971C13.5255 13.2048 15.5356 15.121 18.019 15.121C20.5024 15.121 22.5125 13.2034 22.5125 10.9971C22.5125 8.7867 20.5024 6.86908 18.019 6.8732Z" fill="#1E293B"/>
</svg>
